<svg height="452pt" viewBox="0 -5 452.235 452" width="452pt" xmlns="http://www.w3.org/2000/svg"><path d="m198.925781 99.578125c0-54.929687-44.53125-99.460937-99.464843-99.460937-54.929688 0-99.460938 44.53125-99.460938 99.460937 0 54.933594 44.53125 99.464844 99.460938 99.464844 54.90625-.0625 99.402343-44.558594 99.464843-99.464844zm-168.21875 4.902344c-13.195312-13.199219-13.195312-34.59375 0-47.789063l7.859375-7.859375c-2.578125-5.953125-1.257812-12.878906 3.332032-17.464843l5.777343-5.78125c6.183594-6.164063 16.1875-6.164063 22.367188 0l26.789062 26.789062c6.167969 6.179688 6.167969 16.1875 0 22.367188l-5.777343 5.78125c-2.964844 2.96875-6.988282 4.632812-11.183594 4.625-1.183594-.007813-2.367188-.144532-3.519532-.410157l-3.144531 3.144531 37.929688 37.921876 3.265625-3.265626c-1.109375-5.179687.441406-10.570312 4.132812-14.367187l5.675782-5.796875c2.953124-3.023438 6.992187-4.734375 11.21875-4.757812 4.226562-.027344 8.285156 1.640624 11.273437 4.628906l26.789063 26.789062c6.097656 6.183594 6.152343 16.105469.121093 22.355469l-5.671875 5.914063c-2.917968 3.097656-6.960937 4.890624-11.21875 4.976562h-.089844c-2.238281-.078125-4.433593-.625-6.449218-1.609375l-7.855469 7.632813c-13.195313 13.199218-34.589844 13.199218-47.789063 0zm0 0"/><path d="m249.125 323.28125h-184v7.644531c0 25.898438 20.398438 47.355469 44.949219 47.355469h159.601562c-13.007812-12.332031-20.429687-29.429688-20.550781-47.355469zm0 0"/><path d="m162.046875 140.214844-26.527344-26.527344-5.417969 5.539062 26.53125 26.527344zm0 0"/><path d="m53.339844 42.546875 5.519531-5.519531 26.53125 26.527344-5.519531 5.519531zm0 0"/><path d="m131.011719 156.992188 7.113281-7.113282-14.21875-14.21875-1.644531 1.644532c-6.121094 6.132812-16.046875 6.15625-22.199219.058593l-38.351562-38.359375c-.203126-.191406-.453126-.460937-.703126-.738281-5.539062-6.246094-5.203124-15.738281.761719-21.578125l1.539063-1.542969-14.214844-14.21875-7.070312 7.074219c-6.949219 6.949219-6.949219 18.214844 0 25.160156l63.832031 63.832032c6.945312 6.949218 18.210937 6.949218 25.160156 0zm0 0"/><path d="m214.925781 99.578125c-.019531 11.417969-1.703125 22.769531-5 33.703125h22.386719c4.417969 0 8 3.578125 8 8 0 4.417969-3.582031 8-8 8h-28.617188c-6.878906 14.164062-16.605468 26.761719-28.570312 37h131.554688c4.417968 0 8 3.578125 8 8 0 4.417969-3.582032 8-8 8h-146.40625c-1.890626.113281-3.757813-.472656-5.242188-1.640625-8.457031 4.777344-17.484375 8.46875-26.863281 10.988281l-.742188 95.652344h129.988281c2.046876-.082031 4.039063.6875 5.5 2.125 1.457032 1.4375 2.257813 3.417969 2.210938 5.464844v16.054687c0 25.902344 19.949219 46.96875 44.5 46.96875 24.546875 0 44.5-21.070312 44.5-46.96875v-248.644531h-140.484375c.84375 5.726562 1.269531 11.507812 1.285156 17.296875zm91.753907 161.703125h-146.40625c-4.417969 0-8-3.582031-8-8 0-4.421875 3.582031-8 8-8h146.40625c4.417968 0 8 3.578125 8 8 0 4.417969-3.582032 8-8 8zm0 0"/><path d="m404.757812 420.566406c.023438 5.800782 2.359376 11.351563 6.488282 15.425782 4.128906 4.074218 9.710937 6.339843 15.511718 6.289062h3.273438c5.800781.050781 11.382812-2.214844 15.511719-6.289062 4.128906-4.074219 6.464843-9.625 6.488281-15.425782l.019531-15.285156h-47.3125zm0 0"/><path d="m447.3125 222.28125-18.917969-37.925781-18.917969 37.925781zm0 0"/><path d="m404.722656 389.28125h47.34375l.167969-151h-47.679687zm0 0"/></svg>