<?xml version="1.0" encoding="iso-8859-1"?>
<!-- Generator: Adobe Illustrator 16.0.0, SVG Export Plug-In . SVG Version: 6.00 Build 0)  -->
<!DOCTYPE svg PUBLIC "-//W3C//DTD SVG 1.1//EN" "http://www.w3.org/Graphics/SVG/1.1/DTD/svg11.dtd">
<svg version="1.1" id="Capa_1" xmlns="http://www.w3.org/2000/svg" xmlns:xlink="http://www.w3.org/1999/xlink" x="0px" y="0px"
	 width="88.347px" height="88.346px" viewBox="0 0 88.347 88.346" style="enable-background:new 0 0 88.347 88.346;"
	 xml:space="preserve">
<g>
	<g>
		<path d="M66.373,59.616c-3.251,0-5.896,2.645-5.896,5.896c0,3.25,2.646,5.896,5.896,5.896c3.25,0,5.896-2.646,5.896-5.896
			C72.27,62.26,69.623,59.616,66.373,59.616z"/>
		<path d="M85.208,57.135c0.087-0.444,0.132-0.897,0.132-1.354c0-1.899-0.74-3.688-2.085-5.032l-3.004-3.003
			c-1.614-1.625-4.099-2.368-6.382-1.938c-0.967-1.442-2.447-2.509-4.178-2.944v-11.11c0-0.318-0.066-0.627-0.129-0.941
			c-1.326,6.578-16.345,11.766-34.718,11.766S1.455,37.39,0.129,30.812C0.066,31.126,0,31.435,0,31.753V48.03
			c0,7.02,15.602,12.707,34.846,12.707c3.116,0,6.135-0.152,9.01-0.432c-0.352,0.842-0.552,1.762-0.552,2.729v3.693
			c-2.707,0.246-5.54,0.379-8.458,0.379c-18.373,0-33.391-5.189-34.717-11.766C0.066,55.651,0,55.965,0,56.281v16.278
			c0,7.021,15.602,12.705,34.846,12.705c6.47,0,12.523-0.645,17.717-1.764c1.521,0.963,3.428,1.355,5.217,1.021
			c1.278,1.904,3.453,3.162,5.916,3.162h4.26c2.457,0,4.627-1.252,5.906-3.15c2.278,0.438,4.754-0.311,6.379-1.939l3.016-3.014
			c1.734-1.732,2.385-4.146,1.953-6.389c1.893-1.281,3.138-3.447,3.138-5.9v-4.26C88.346,60.583,87.1,58.417,85.208,57.135z
			 M83.395,67.641c0,0.896-0.727,1.621-1.619,1.621h-2.576c-0.27,0.927-0.641,1.82-1.104,2.668l1.819,1.82
			c0.632,0.633,0.632,1.66,0,2.291L76.9,79.053c-0.61,0.611-1.678,0.611-2.287,0l-1.822-1.819c-0.848,0.467-1.743,0.836-2.67,1.104
			v2.576c0,0.893-0.727,1.619-1.619,1.619h-4.26c-0.894,0-1.618-0.727-1.618-1.619v-2.576c-0.927-0.27-1.823-0.639-2.671-1.104
			l-1.821,1.819c-0.587,0.59-1.7,0.588-2.287,0l-3.014-3.012c-0.306-0.307-0.474-0.711-0.474-1.146c0-0.427,0.172-0.845,0.475-1.146
			l1.818-1.82c-0.465-0.848-0.836-1.741-1.104-2.668h-2.576c-0.895,0-1.619-0.727-1.619-1.621v-4.26
			c0-0.893,0.727-1.617,1.619-1.617h2.576c0.27-0.928,0.639-1.821,1.104-2.672l-1.819-1.819c-0.632-0.632-0.632-1.656,0-2.289
			l3.014-3.013c0.61-0.61,1.677-0.61,2.287,0l1.821,1.82c0.848-0.467,1.744-0.836,2.671-1.104v-2.576
			c0-0.894,0.726-1.619,1.618-1.619h4.26c0.895,0,1.619,0.728,1.619,1.619v2.576c0.927,0.271,1.822,0.639,2.67,1.104l1.822-1.82
			c0.588-0.59,1.701-0.59,2.287,0l3.014,3.013c0.306,0.308,0.474,0.713,0.474,1.146c0,0.426-0.173,0.846-0.475,1.146l-1.818,1.819
			c0.464,0.849,0.835,1.742,1.104,2.67h2.576c0.894,0,1.619,0.726,1.619,1.617V67.641z"/>
		<path d="M34.846,36.501c19.244,0,34.846-5.686,34.846-12.705V13.37c0-7.02-15.602-12.707-34.846-12.707
			C15.602,0.663,0,6.351,0,13.37v10.426C0,30.816,15.602,36.501,34.846,36.501z"/>
	</g>
</g>
<g>
</g>
<g>
</g>
<g>
</g>
<g>
</g>
<g>
</g>
<g>
</g>
<g>
</g>
<g>
</g>
<g>
</g>
<g>
</g>
<g>
</g>
<g>
</g>
<g>
</g>
<g>
</g>
<g>
</g>
</svg>
