<svg height="496pt" viewBox="0 0 496 496" width="496pt" xmlns="http://www.w3.org/2000/svg"><path d="m480 480h16v16h-16zm0 0"/><path d="m0 480h16v16h-16zm0 0"/><path d="m496 352c0-64.929688-43.222656-119.910156-102.390625-137.816406 3.925781-4.703125 6.390625-10.671875 6.390625-17.261719 0-11.144531-6.679688-21.011719-17.023438-25.152344l-143.183593-57.273437c-3.761719-1.503906-7.664063-2.59375-11.59375-3.238282l-36.199219-6.035156v-5.542968c9.792969-8.792969 16-21.503907 16-35.679688v-16c0-26.472656-21.527344-48-48-48s-48 21.527344-48 48v16c0 14.167969 6.207031 26.878906 16 35.679688v6.558593l-55.59375 18.53125c-9.8125 3.269531-16.40625 12.414063-16.40625 22.757813v128.472656c0 4.3125 1.0625 8.351562 2.808594 12h-42.808594c-8.824219 0-16 7.175781-16 16v64c0 8.824219 7.175781 16 16 16h80v96h-64v16h432v-16h-46.328125c46.433594-23.929688 78.328125-72.265625 78.328125-128zm-16 0c0 70.574219-57.425781 128-128 128s-128-57.425781-128-128 57.425781-128 128-128 128 57.425781 128 128zm-256-65.664062v-110.335938h14.550781l90.632813 33.984375c-45.910156 7.359375-84.597656 36.390625-105.183594 76.351563zm-96-238.335938c0-17.648438 14.351562-32 32-32s32 14.351562 32 32v16c0 17.648438-14.351562 32-32 32s-32-14.351562-32-32zm-22.425781 256-31.359375 20.902344c-6.085938 4.050781-14.359375 4.050781-20.4375 0l-31.351563-20.902344zm-89.574219 14.945312 28.910156 19.269532c5.675782 3.785156 12.273438 5.785156 19.089844 5.785156s13.414062-2 19.097656-5.785156l28.902344-19.269532.007812 49.054688h-96.007812zm96 65.054688c8.824219 0 16-7.175781 16-16v-64c0-8.824219-7.175781-16-16-16v-128h-16v116c0 6.617188-5.382812 12-12 12s-12-5.382812-12-12v-128.472656c0-3.449219 2.199219-6.496094 5.472656-7.589844l66.527344-22.167969v-8.570312c5.015625 1.785156 10.382812 2.800781 16 2.800781s10.984375-1.023438 16-2.800781v9.578125l49.574219 8.261718c2.800781.472657 5.585937 1.242188 8.265625 2.320313l143.183594 57.273437c4.242187 1.6875 6.976562 5.734376 6.976562 10.289063 0 6.109375-4.976562 11.078125-11.078125 11.078125h-1.457031c-1.328125 0-2.640625-.230469-3.890625-.710938l-126.125-47.289062h-33.449219v320h-40v-216h-16v216h-40zm112 96v-62.335938c13.769531 26.71875 35.609375 48.566407 62.328125 62.335938zm0 0"/><path d="m344 296v64h40v-16h-24v-48zm0 0"/><path d="m279.175781 267.007812 10.417969 12.144532c15.367188-13.175782 34.429688-21.105469 54.40625-22.792969v23.640625h16v-23.59375c46.550781 3.867188 83.726562 41.042969 87.59375 87.59375h-23.59375v16h23.640625c-1.6875 19.96875-9.609375 39.039062-22.792969 54.398438l12.152344 10.425781c17.40625-20.3125 27-46.167969 27-72.824219 0-61.761719-50.238281-112-112-112-26.664062 0-52.519531 9.59375-72.824219 27.007812zm0 0"/><path d="m360 447.640625v-23.640625h-16v23.59375c-46.550781-3.867188-83.726562-41.042969-87.59375-87.59375h23.59375v-16h-23.640625c1.6875-19.96875 9.609375-39.039062 22.792969-54.398438l-12.152344-10.425781c-17.40625 20.3125-27 46.167969-27 72.824219 0 61.761719 50.238281 112 112 112 26.664062 0 52.519531-9.59375 72.824219-27.007812l-10.417969-12.144532c-15.367188 13.183594-34.4375 21.113282-54.40625 22.792969zm0 0"/></svg>