<svg height="512pt" viewBox="0 0 512 512" width="512pt" xmlns="http://www.w3.org/2000/svg"><path d="m344.5 448h15v64h-15zm0 0"/><path d="m248.5 448h15v64h-15zm0 0"/><path d="m152.5 448h15v64h-15zm0 0"/><path d="m0 152.5h64v15h-64zm0 0"/><path d="m0 248.5h64v15h-64zm0 0"/><path d="m0 344.5h64v15h-64zm0 0"/><path d="m344.5 0h15v64h-15zm0 0"/><path d="m248.5 0h15v64h-15zm0 0"/><path d="m152.5 0h15v40h-15zm0 0"/><path d="m448 152.5h64v15h-64zm0 0"/><path d="m472 248.5h40v15h-40zm0 0"/><path d="m448 344.5h64v15h-64zm0 0"/><g fill="#00e9cc"><path d="m216 248.5h16v15h-16zm0 0"/><path d="m248 248.5h16v15h-16zm0 0"/><path d="m280 248.5h16v15h-16zm0 0"/><path d="m368 400h-39.5v55.5h47v-55.5zm0 0"/><path d="m264.5 400h-32v55.5h47v-55.5zm0 0"/><path d="m168.5 400h-32v55.5h47v-55.5zm0 0"/><path d="m136.5 112h47v-55.5h-47zm0 0"/><path d="m232.5 112h47v-55.5h-47zm0 0"/><path d="m328.5 56.5v55.5h47v-55.5zm0 0"/><path d="m56.5 375.5h55.5v-47h-55.5zm0 0"/><path d="m56.5 279.5h55.5v-47h-55.5zm0 0"/><path d="m56.5 136.5v47h55.5v-47zm0 0"/><path d="m400 136.5v47h55.5v-47zm0 0"/><path d="m400 240v39.5h55.5v-47h-55.5zm0 0"/><path d="m400 336v39.5h55.5v-47h-55.5zm0 0"/></g><path d="m367.5 144.5h-186.605469l-36.394531 36.394531v186.605469h223zm-15 208h-193v-165.394531l27.605469-27.605469h165.394531zm0 0"/><path d="m176.5 335.5h159v-159h-130.605469l-28.394531 28.394531zm15-124.394531 19.605469-19.605469h109.394531v129h-129zm0 0"/><path d="m104.5 104.5v303h303v-303zm288 288h-273v-273h273zm0 0"/></svg>