<svg id="icons" enable-background="new 0 0 64 64" height="512" viewBox="0 0 64 64" width="512" xmlns="http://www.w3.org/2000/svg"><path d="m61 3.998h-58c-1.654 0-3 1.346-3 3v52.004c0 .553.447 1 1 1h62c.553 0 1-.447 1-1v-52.004c0-1.654-1.346-3-3-3zm-59 6h60v48.004h-60zm1-4h1.02c-.552 0-.994.447-.994 1s.452 1 1.005 1c.552 0 1-.447 1-1s-.448-1-1-1h2.988c-.552 0-.994.447-.994 1s.452 1 1.005 1c.552 0 1-.447 1-1s-.448-1-1-1h2.992c-.552 0-.994.447-.994 1s.452 1 1.005 1c.552 0 1-.447 1-1s-.448-1-1-1h50.967c.552 0 1 .448 1 1v1h-51.968-3.003-2.999-2.03v-1c0-.552.448-1 1-1z"/><path d="m8 14.998h-2v-.586l.708-.707c.391-.39.391-1.023 0-1.414s-1.023-.391-1.414 0l-1 .999c-.093.092-.166.203-.217.325s-.077.252-.077.383v2 3c0 .553.447 1 1 1h3c.553 0 1-.447 1-1v-3c0-.553-.447-1-1-1zm-1 3h-1v-1h1z"/><path d="m14 19.998c.553 0 1-.447 1-1v-3c0-.553-.447-1-1-1h-2v-.586l.708-.707c.391-.39.391-1.023 0-1.414s-1.023-.391-1.414 0l-1 .999c-.093.092-.166.203-.217.325s-.077.252-.077.383v2 3c0 .553.447 1 1 1zm-1-2h-1v-1h1z"/><path d="m59.001 47.995h-3c-.553 0-1 .447-1 1v3c0 .553.447 1 1 1h2v.586l-.708.707c-.391.39-.391 1.023 0 1.414.195.195.451.293.707.293s.512-.098.707-.293l1-.999c.093-.092.166-.203.217-.325s.077-.252.077-.383v-2-3c0-.553-.447-1-1-1zm-2 2h1v1h-1z"/><path d="m53.001 47.995h-3c-.553 0-1 .447-1 1v3c0 .553.447 1 1 1h2v.586l-.708.707c-.391.39-.391 1.023 0 1.414.195.195.451.293.707.293s.512-.098.707-.293l1-.999c.093-.092.166-.203.217-.325s.077-.252.077-.383v-2-3c0-.553-.447-1-1-1zm-2 2h1v1h-1z"/><path d="m10.997 36.008c0 .553.447 1 1 1h40.006c.553 0 1-.447 1-1s-.447-1-1-1h-40.006c-.553 0-1 .447-1 1z"/><path d="m52.003 38.008h-40.006c-.553 0-1 .447-1 1s.447 1 1 1h40.006c.553 0 1-.447 1-1s-.447-1-1-1z"/><path d="m53.003 42.008c0-.553-.447-1-1-1h-40.006c-.553 0-1 .447-1 1s.447 1 1 1h40.006c.553 0 1-.447 1-1z"/><path d="m42 44.008h-20c-.553 0-1 .447-1 1s.447 1 1 1h20c.553 0 1-.447 1-1s-.447-1-1-1z"/><path d="m27.549 31.396c.006.005.014.009.02.015 1.208.991 2.751 1.587 4.432 1.587 1.685 0 3.232-.599 4.441-1.595.001-.001.003-.001.004-.002 1.558-1.285 2.554-3.23 2.554-5.404 0-3.859-3.141-7-7-7s-7 3.141-7 7c0 2.171.993 4.114 2.549 5.399zm1.975-1.081c.55-.807 1.468-1.318 2.475-1.318 1.008 0 1.926.512 2.476 1.319-.732.422-1.57.682-2.475.682s-1.742-.26-2.476-.683zm2.476-3.318c-.552 0-1-.448-1-1s.448-1 1-1 1 .448 1 1-.448 1-1 1zm0-6c2.757 0 5 2.243 5 5 0 1.123-.386 2.15-1.014 2.986-.406-.537-.923-.975-1.502-1.308.326-.479.516-1.056.516-1.678 0-1.654-1.346-3-3-3s-3 1.346-3 3c0 .621.19 1.199.515 1.679-.579.333-1.095.77-1.502 1.307-.627-.837-1.013-1.863-1.013-2.986 0-2.757 2.243-5 5-5z"/></svg>