<?xml version="1.0" encoding="iso-8859-1"?>
<!-- Generator: Adobe Illustrator 19.0.0, SVG Export Plug-In . SVG Version: 6.00 Build 0)  -->
<svg version="1.1" id="Capa_1" xmlns="http://www.w3.org/2000/svg" xmlns:xlink="http://www.w3.org/1999/xlink" x="0px" y="0px"
	 viewBox="0 0 512.002 512.002" style="enable-background:new 0 0 512.002 512.002;" xml:space="preserve">
<g>
	<g>
		<path d="M509.866,153.61l-64-85.333c-2.01-2.688-5.177-4.271-8.531-4.271H256.855h-0.896H74.668c-3.354,0-6.521,1.583-8.531,4.271
			l-64,85.333c-3.042,4.042-2.813,9.677,0.542,13.458l245.333,277.323c2.021,2.292,4.938,3.604,7.99,3.604s5.969-1.313,7.99-3.604
			l245.333-277.323C512.678,163.287,512.907,157.652,509.866,153.61z M415.156,85.339h11.512v42.667h-25.24
			C408.057,118.476,413.522,104.651,415.156,85.339z M393.936,85.339c-2.12,20.888-9.904,32.306-16.171,37.967
			c-5.958-10.383-17.339-25.538-37.221-37.967H393.936z M24.418,159.454l55.583-74.115h51.376
			c-25.862,10.139-49.93,25.094-65.439,47.208c-13.574,19.354-19.693,35.688-21.661,49.354L24.418,159.454z M159.903,312.606
			c2.836-3.948,11.947-13.934,32.098-13.934c23.372,0,35.012,26.832,39.882,42.823c-16.375,0.728-32.234,0.684-46.387,0.042
			L159.903,312.606z M256.001,421.235l-51.217-57.896c1.301,0.009,2.458,0.031,3.832,0.031c28.697,0,72.668-2.1,109.608-12.471
			L256.001,421.235z M363.043,295.871c-7.279,26.766-57.576,39.647-109.365,44.185c-5.249-19.63-21.328-62.716-61.677-62.716
			c-24.883,0-39.147,11.04-46.346,19.16l-38.059-43.021c9.447,1.669,19.793,2.527,30.957,2.527c0.042,0,0.083,0,0.125,0
			c164.125-0.25,211.708,17.052,222.719,31.458C363.459,290.152,363.938,292.589,363.043,295.871z M381.379,279.509
			c-0.879-1.706-1.807-3.4-3.034-5.003c-21.052-27.542-94.552-39.833-238.271-39.833c-0.5,0-0.906-0.01-1.521,0
			c-31.197,0-54.643-7.48-65.957-20.758l-0.004-0.005c-1.616-1.897-2.983-3.911-4.091-6.039
			c-8.052-15.479-2.76-37.885,14.896-63.073c21.37-30.483,64.161-45.344,101.768-52.586c-12.283,16.021-14.497,35.077-14.497,46.461
			c0,35.885,27.917,53.333,85.333,53.333c103.87,0,156.374,1.776,168.982,38.212L381.379,279.509z M440.528,212.647
			c-23.241-41.868-89.513-41.974-184.527-41.974c-64,0-64-21.615-64-32c0-24.219,11.115-53.125,64.042-53.333h0.792
			c85.792,0,105.594,54.427,106.375,56.688c1.448,4.365,5.531,7.313,10.125,7.313h64c5.896,0,10.667-4.771,10.667-10.667v-31.999
			l39.583,52.78L440.528,212.647z"/>
	</g>
</g>
<g>
</g>
<g>
</g>
<g>
</g>
<g>
</g>
<g>
</g>
<g>
</g>
<g>
</g>
<g>
</g>
<g>
</g>
<g>
</g>
<g>
</g>
<g>
</g>
<g>
</g>
<g>
</g>
<g>
</g>
</svg>
